<svg width="56.693" height="56.693" xmlns="http://www.w3.org/2000/svg">
<desc>Source: https://www.iconfinder.com/icons/104476/payment_paypal_icon</desc>
 <g>
  <title>background</title>
  <rect fill="none" id="canvas_background" height="402" width="582" y="-1" x="-1"/>
 </g>
 <g>
  <title>Layer 1</title>
  <path fill="#ffffff" id="svg_2" d="m30.525,24.315c0.357,-0.229 0.699,-0.486 1.01,-0.779c0.867,-0.812 1.52,-1.855 1.793,-2.999c0.48,-1.715 -0.076,-3.203 -1.223,-4.027c-0.604,-0.434 -1.369,-0.689 -2.236,-0.689l-5.033,0l-0.162,0.689l-2.041,8.747l4.822,0c1.068,-0.001 2.135,-0.354 3.07,-0.942zm-2.992,-5.096l2.336,0c0.121,0 0.193,0.02 0.229,0.033c0.008,0.051 0.014,0.168 -0.043,0.367l-0.018,0.062l-0.014,0.062c-0.262,1.086 -1.51,2.114 -2.568,2.114l-0.539,0l0.617,-2.638z"/>
  <path fill="#ffffff" id="svg_3" d="m50.002,17.865c-0.98,-1.219 -2.217,-2.23 -3.621,-3.008c-0.461,-2.045 -1.363,-3.602 -2.252,-4.707c-2.393,-2.977 -6.312,-4.756 -10.484,-4.756l-17.513,0l-2.721,0l-0.597,2.652l-7.76,34.502l-0.932,4.145l4.248,0l3.357,0l-0.801,3.568l-0.934,4.145l4.25,0l10.278,0l2.732,0l0.586,-2.666l1.93,-8.76l4.609,0c8.932,0 15.916,-5.494 17.791,-13.995c1.203,-5.461 -0.514,-9.061 -2.166,-11.12zm-37.508,25.427l-4.123,0l7.762,-34.501l17.512,0c3.24,0 6.814,1.467 8.564,4.574c0.602,1.07 0.988,2.336 1.068,3.805c0.057,1.021 -0.033,2.145 -0.303,3.367c-0.613,2.788 -1.891,5.114 -3.629,6.928c-2.656,2.776 -6.404,4.327 -10.58,4.389c-0.088,0.002 -0.174,0.01 -0.26,0.01l-7.342,0l-2.516,11.428l-2.67,0l-3.483,0zm36.354,-15.04c-1.572,7.133 -7.445,11.329 -14.471,11.329l-7.342,0l-2.515,11.428l-10.276,0l0.971,-4.316l3.434,0l2.733,0l0.588,-2.668l1.928,-8.76l4.609,0c8.932,0 15.914,-5.494 17.789,-13.993c0.158,-0.721 0.264,-1.407 0.328,-2.065c2.007,1.924 3.138,4.905 2.224,9.045z"/>
 </g>
</svg>