<svg id="svg" version="1.1" xmlns="http://www.w3.org/2000/svg" xmlns:xlink="http://www.w3.org/1999/xlink" width="400" height="528.8135593220339" viewBox="0, 0, 400,528.8135593220339"><g id="svgg"><path id="path0" d="M353.200 22.678 C 349.381 22.842,346.124 23.594,345.077 24.555 C 344.010 25.535,340.321 27.269,337.312 28.206 C 335.270 28.842,333.200 30.640,333.200 31.777 C 333.200 32.061,332.345 32.941,331.300 33.733 C 328.380 35.945,328.021 36.402,327.336 38.784 C 326.655 41.153,325.421 43.838,324.911 44.063 C 324.740 44.138,323.633 45.370,322.451 46.800 C 320.194 49.529,316.428 52.647,314.900 53.049 C 314.405 53.180,314.000 53.435,314.000 53.616 C 314.000 56.127,293.051 55.864,290.471 53.321 C 290.181 53.034,289.748 52.800,289.509 52.800 C 289.271 52.800,288.505 52.365,287.808 51.833 C 287.111 51.302,285.384 50.493,283.970 50.037 C 282.557 49.581,280.320 48.860,279.000 48.435 C 274.958 47.136,273.901 46.644,272.626 45.471 C 270.682 43.682,269.285 43.125,264.800 42.352 C 260.321 41.579,255.439 40.170,254.668 39.429 C 248.348 33.345,197.474 33.202,193.192 39.256 C 192.822 39.778,190.922 40.350,186.111 41.387 C 178.511 43.026,173.853 44.785,172.799 46.416 C 172.358 47.098,166.469 48.820,159.925 50.179 C 159.334 50.302,157.935 51.295,156.815 52.385 C 155.696 53.476,154.157 54.540,153.397 54.750 C 151.463 55.284,145.251 58.903,143.756 60.367 C 143.073 61.036,141.583 62.015,140.446 62.542 C 139.229 63.106,137.437 64.486,136.090 65.896 C 134.830 67.215,133.080 68.667,132.200 69.124 C 131.320 69.581,129.557 70.955,128.282 72.177 C 127.006 73.400,125.710 74.400,125.401 74.400 C 125.093 74.400,124.696 74.644,124.520 74.943 C 124.344 75.242,123.068 76.090,121.683 76.829 C 120.212 77.613,118.551 78.920,117.683 79.973 C 116.221 81.751,114.648 83.376,112.763 85.061 C 112.233 85.534,111.260 86.597,110.600 87.424 C 109.152 89.236,106.752 91.600,106.360 91.600 C 106.204 91.600,105.580 92.455,104.974 93.500 C 104.368 94.545,103.631 95.544,103.336 95.720 C 103.041 95.896,102.800 96.209,102.800 96.416 C 102.800 96.876,100.676 99.636,98.675 101.778 C 97.864 102.646,97.200 103.531,97.200 103.745 C 97.200 104.245,96.721 104.796,93.260 108.275 C 91.687 109.857,90.400 111.308,90.400 111.500 C 90.400 111.692,90.085 112.198,89.700 112.625 C 89.315 113.051,88.521 114.120,87.936 115.000 C 87.350 115.880,86.420 117.072,85.868 117.648 C 85.316 118.224,84.307 119.799,83.626 121.148 C 82.945 122.497,82.226 123.600,82.026 123.600 C 81.827 123.600,81.371 124.483,81.013 125.562 C 80.654 126.642,79.650 128.518,78.780 129.732 C 77.911 130.945,77.200 132.140,77.200 132.385 C 77.200 133.007,75.585 136.111,75.008 136.599 C 72.774 138.483,69.602 144.163,69.037 147.287 C 68.890 148.105,68.550 149.005,68.283 149.287 C 68.016 149.569,67.284 150.790,66.656 152.000 C 66.028 153.210,64.900 155.100,64.149 156.200 C 63.398 157.300,62.423 159.401,61.984 160.869 C 61.544 162.337,61.046 163.597,60.876 163.669 C 59.580 164.220,56.318 171.427,55.152 176.316 C 54.665 178.360,53.936 180.413,53.533 180.877 C 53.130 181.342,52.800 181.930,52.800 182.183 C 52.800 182.437,52.332 183.265,51.761 184.022 C 50.334 185.913,49.526 187.896,48.211 192.727 C 47.593 194.998,46.888 197.068,46.644 197.327 C 43.937 200.209,43.729 200.860,41.827 212.400 C 40.433 220.863,39.760 224.004,39.255 224.401 C 37.499 225.784,36.285 231.351,35.418 242.000 C 35.082 246.117,34.465 250.723,34.026 252.383 C 33.592 254.024,33.023 257.084,32.762 259.183 C 32.500 261.283,32.157 263.090,31.998 263.200 C 31.089 263.831,30.051 273.397,29.201 289.000 C 28.973 293.180,28.613 297.770,28.402 299.200 C 28.152 300.890,28.157 302.948,28.418 305.082 C 28.674 307.186,28.685 309.777,28.447 312.304 C 28.243 314.472,28.167 322.175,28.278 329.423 C 28.509 344.458,28.772 345.768,32.020 348.071 C 33.449 349.085,33.544 349.289,33.792 351.871 C 34.266 356.816,35.183 366.125,35.635 370.600 C 36.301 377.184,38.162 384.400,39.194 384.400 C 39.646 384.400,40.666 388.417,41.582 393.800 C 43.026 402.293,44.934 408.569,46.387 409.600 C 46.542 409.710,47.252 411.690,47.965 414.000 C 49.670 419.519,50.303 420.966,51.878 422.948 C 52.601 423.856,53.194 424.748,53.196 424.929 C 53.198 425.109,53.465 425.522,53.788 425.845 C 54.111 426.169,54.751 427.731,55.209 429.317 C 56.558 433.982,57.648 436.520,58.861 437.819 C 59.488 438.490,60.000 439.246,60.000 439.499 C 60.000 439.753,60.249 440.104,60.554 440.280 C 60.859 440.456,61.834 442.141,62.722 444.025 C 63.610 445.908,64.631 447.694,64.991 447.993 C 65.351 448.292,66.122 449.361,66.703 450.368 C 67.284 451.376,67.994 452.344,68.280 452.520 C 68.566 452.696,68.800 453.010,68.800 453.219 C 68.800 454.645,71.297 458.672,72.625 459.386 C 73.428 459.818,74.242 460.583,74.433 461.086 C 74.624 461.589,74.945 462.000,75.147 462.000 C 75.348 462.000,75.791 462.694,76.130 463.542 C 76.695 464.954,78.814 467.200,79.581 467.200 C 80.063 467.200,83.600 470.684,83.600 471.160 C 83.600 471.388,84.590 472.322,85.800 473.235 C 87.010 474.149,88.000 475.123,88.000 475.399 C 88.000 475.881,91.364 479.469,93.831 481.619 C 94.474 482.179,95.445 483.210,95.988 483.910 C 96.531 484.609,98.376 486.093,100.088 487.208 C 101.800 488.323,103.200 489.388,103.200 489.575 C 103.200 490.846,105.672 492.368,110.006 493.764 C 114.618 495.251,116.326 496.066,116.920 497.063 C 117.096 497.358,117.479 497.600,117.771 497.600 C 118.063 497.600,118.512 497.853,118.769 498.162 C 119.271 498.768,123.386 500.414,128.731 502.147 C 130.564 502.741,132.449 503.587,132.921 504.027 C 135.175 506.127,139.261 507.203,149.600 508.419 C 154.347 508.977,158.655 509.919,159.305 510.540 C 162.196 513.307,188.728 514.892,201.600 513.068 C 207.992 512.162,213.344 511.136,213.600 510.767 C 213.938 510.281,218.032 509.260,221.400 508.822 C 223.160 508.593,226.760 508.127,229.400 507.787 C 236.668 506.848,240.717 505.525,243.114 503.304 C 243.408 503.031,244.583 502.543,245.725 502.218 C 256.006 499.295,255.631 499.448,258.134 497.151 C 259.543 495.858,263.385 494.306,266.439 493.798 C 269.037 493.365,271.067 492.184,272.228 490.429 C 273.295 488.818,276.048 487.239,280.200 485.856 C 281.320 485.484,282.968 484.478,283.944 483.571 C 284.903 482.680,287.153 481.248,288.944 480.390 C 290.819 479.491,293.116 477.978,294.359 476.822 C 295.547 475.719,297.527 474.148,298.759 473.331 C 299.992 472.515,302.080 470.736,303.400 469.379 C 304.720 468.022,306.523 466.461,307.406 465.910 C 308.289 465.360,309.256 464.614,309.555 464.254 C 309.854 463.894,310.266 463.600,310.472 463.600 C 310.779 463.600,313.665 461.541,314.400 460.798 C 314.510 460.686,315.320 460.060,316.200 459.405 C 317.080 458.750,318.530 457.491,319.421 456.607 C 321.904 454.146,324.390 452.000,324.759 452.000 C 324.941 452.000,326.723 450.425,328.719 448.500 C 330.714 446.575,333.180 444.370,334.199 443.600 C 335.217 442.830,336.710 441.311,337.515 440.224 C 338.321 439.137,340.200 437.028,341.690 435.538 C 343.181 434.047,344.400 432.668,344.400 432.473 C 344.400 432.001,347.871 428.466,349.618 427.159 C 350.383 426.586,351.547 425.326,352.205 424.359 C 352.862 423.392,353.760 422.346,354.200 422.036 C 355.951 420.803,359.202 417.169,359.769 415.812 C 360.099 415.022,360.994 413.786,361.757 413.066 C 363.439 411.480,365.495 406.034,366.011 401.800 C 366.491 397.858,367.185 394.873,367.757 394.294 C 368.733 393.305,369.993 390.502,371.480 386.012 C 372.683 382.381,373.277 381.171,374.329 380.212 C 378.103 376.770,377.961 377.013,377.327 375.088 C 377.012 374.133,376.135 372.655,375.378 371.803 C 373.790 370.018,373.760 369.897,374.697 368.960 C 377.480 366.178,378.794 359.981,377.956 353.600 C 377.415 349.484,376.941 348.184,375.680 347.359 C 375.086 346.970,374.250 346.190,373.821 345.626 C 371.817 342.986,369.329 340.866,367.730 340.435 C 366.813 340.188,366.003 339.846,365.931 339.676 C 365.155 337.839,357.561 336.715,355.000 338.058 C 354.340 338.405,353.305 338.806,352.700 338.951 C 352.095 339.097,351.600 339.378,351.600 339.576 C 351.600 339.774,351.068 340.053,350.417 340.196 C 349.295 340.443,348.598 341.106,345.800 344.589 C 345.140 345.411,344.018 346.758,343.306 347.583 C 342.595 348.408,341.437 350.324,340.734 351.841 C 340.030 353.359,339.332 354.690,339.183 354.800 C 339.034 354.910,338.613 355.583,338.248 356.295 C 337.884 357.007,337.078 358.177,336.458 358.895 C 335.839 359.613,334.643 361.817,333.801 363.793 C 332.960 365.769,332.030 367.627,331.736 367.922 C 331.441 368.216,331.200 368.628,331.200 368.838 C 331.200 369.047,330.513 369.979,329.673 370.909 C 327.598 373.206,326.599 374.730,326.044 376.440 C 325.038 379.544,321.545 382.000,318.136 382.000 C 317.621 382.000,317.200 382.167,317.200 382.372 C 317.200 382.577,316.795 382.802,316.300 382.872 C 315.701 382.957,315.058 383.635,314.376 384.899 C 313.353 386.796,311.323 389.200,310.743 389.200 C 310.278 389.200,308.738 390.848,307.429 392.749 C 306.784 393.684,305.704 394.902,305.029 395.456 C 304.353 396.010,302.406 397.808,300.702 399.452 C 298.999 401.095,297.081 402.623,296.440 402.846 C 295.744 403.089,295.079 403.725,294.788 404.428 C 294.096 406.100,291.498 408.572,289.394 409.561 C 288.407 410.025,287.600 410.658,287.600 410.968 C 287.600 411.834,284.072 414.743,282.493 415.179 C 280.983 415.595,279.200 417.030,279.200 417.828 C 279.200 418.560,276.541 420.751,275.293 421.048 C 273.762 421.412,269.296 423.930,268.698 424.767 C 267.916 425.859,264.890 427.420,261.400 428.532 C 257.153 429.886,255.444 430.624,254.819 431.377 C 254.535 431.720,254.144 432.000,253.951 432.000 C 253.758 432.000,253.247 432.353,252.817 432.783 C 252.386 433.214,250.721 433.952,249.117 434.423 C 242.228 436.446,239.054 437.912,237.400 439.833 C 236.294 441.118,229.464 442.224,220.200 442.619 C 214.549 442.859,211.371 443.250,202.291 444.821 C 200.357 445.156,199.125 445.059,194.691 444.224 C 189.505 443.248,187.062 442.916,178.200 441.982 C 173.322 441.468,166.359 440.153,166.019 439.681 C 165.796 439.372,163.320 438.230,156.287 435.192 C 153.625 434.042,151.917 433.019,150.944 431.992 C 150.157 431.162,148.858 430.205,148.057 429.867 C 142.622 427.571,141.436 426.934,140.475 425.788 C 139.884 425.084,137.359 423.138,134.863 421.464 C 132.242 419.704,129.852 417.763,129.201 416.865 C 128.582 416.011,127.069 414.442,125.838 413.379 C 124.607 412.317,123.600 411.240,123.600 410.988 C 123.600 410.735,122.700 409.030,121.600 407.200 C 120.500 405.370,119.600 403.780,119.600 403.668 C 119.600 403.555,118.826 402.721,117.880 401.815 C 116.684 400.668,115.872 399.380,115.214 397.583 C 113.817 393.770,111.206 388.488,110.603 388.257 C 109.837 387.963,108.547 384.234,107.361 378.884 C 106.466 374.852,104.541 369.848,103.634 369.200 C 102.753 368.570,101.511 362.902,100.975 357.063 C 100.235 348.996,98.997 341.013,97.931 337.445 C 97.479 335.929,97.012 333.949,96.895 333.045 C 96.777 332.140,96.542 331.309,96.373 331.197 C 94.373 329.873,94.367 281.346,96.367 280.004 C 96.535 279.892,96.890 278.630,97.157 277.200 C 97.424 275.770,97.896 273.790,98.206 272.800 C 98.995 270.281,100.268 260.595,100.808 253.000 C 101.360 245.228,102.542 238.866,103.593 238.000 C 105.113 236.748,106.528 231.467,107.989 221.600 C 108.429 218.630,109.076 215.210,109.427 214.000 C 109.779 212.790,110.162 211.395,110.280 210.900 C 110.397 210.405,110.620 210.000,110.776 210.000 C 111.394 210.000,112.818 206.354,113.978 201.800 C 115.291 196.650,117.299 192.000,118.211 192.000 C 119.001 192.000,119.407 191.096,121.194 185.370 C 122.740 180.415,124.444 176.800,125.234 176.800 C 125.652 176.800,127.999 172.152,128.000 171.322 C 128.000 170.240,130.925 164.526,131.965 163.575 C 132.582 163.010,133.407 161.570,133.798 160.375 C 134.899 157.015,136.237 154.603,138.046 152.721 C 138.997 151.731,140.524 149.301,141.640 147.000 C 142.708 144.800,144.260 142.277,145.090 141.392 C 145.921 140.508,147.101 138.784,147.714 137.560 C 148.744 135.502,149.888 134.049,153.353 130.400 C 154.084 129.630,155.628 127.750,156.784 126.223 C 157.939 124.695,160.025 122.582,161.419 121.527 C 162.812 120.473,164.406 119.014,164.961 118.287 C 165.515 117.560,166.651 116.595,167.485 116.144 C 172.880 113.221,173.892 112.602,174.700 111.730 C 175.195 111.196,175.601 110.633,175.603 110.479 C 175.607 110.001,178.106 108.529,180.200 107.770 C 182.846 106.812,184.733 105.600,186.211 103.910 C 187.523 102.409,189.734 101.547,196.114 100.053 C 198.047 99.600,200.117 98.957,200.714 98.624 C 201.311 98.291,202.475 97.717,203.300 97.348 C 204.125 96.980,204.800 96.548,204.800 96.388 C 204.800 96.017,206.495 95.340,208.800 94.789 C 211.416 94.165,233.018 93.582,237.855 94.006 C 242.735 94.433,246.435 95.603,248.141 97.257 C 249.433 98.510,252.270 99.959,256.729 101.644 C 258.119 102.170,259.559 102.871,259.929 103.203 C 260.298 103.534,261.097 104.026,261.704 104.296 C 262.860 104.810,266.093 109.433,266.531 111.200 C 266.682 111.808,267.412 112.559,268.393 113.114 C 270.620 114.375,272.021 116.663,272.682 120.118 C 273.503 124.410,274.400 131.487,274.400 133.675 C 274.400 134.734,274.580 135.600,274.800 135.600 C 275.020 135.600,275.200 136.590,275.200 137.800 C 275.200 139.010,275.046 140.000,274.857 140.000 C 274.473 140.000,273.990 143.435,272.803 154.600 C 271.596 165.960,270.486 170.254,268.373 171.734 C 267.383 172.427,266.086 177.189,264.816 184.800 C 263.559 192.325,262.822 195.996,262.144 198.106 C 261.471 200.202,261.599 201.749,262.801 206.000 C 263.205 207.430,264.013 211.210,264.595 214.400 C 266.122 222.759,268.558 226.612,274.696 230.378 C 275.960 231.153,277.039 232.182,277.411 232.967 C 279.930 238.276,297.518 237.877,302.916 232.389 C 303.970 231.317,305.827 229.871,307.044 229.175 C 308.597 228.286,309.456 227.476,309.928 226.455 C 310.750 224.675,313.333 222.082,314.599 221.764 C 315.587 221.517,315.965 220.779,316.975 217.133 C 317.321 215.886,317.738 214.806,317.902 214.733 C 318.066 214.660,318.637 213.700,319.172 212.600 C 319.707 211.500,320.740 209.964,321.469 209.186 C 322.758 207.810,324.400 202.289,324.400 199.328 C 324.400 198.818,324.555 198.400,324.745 198.400 C 324.934 198.400,325.208 197.241,325.353 195.825 C 325.670 192.734,326.829 188.905,328.248 186.266 C 329.425 184.074,330.508 179.842,331.207 174.700 C 331.469 172.775,331.815 171.200,331.977 171.200 C 332.140 171.200,332.515 170.188,332.812 168.951 C 333.109 167.714,333.960 165.692,334.703 164.457 C 336.036 162.243,337.069 158.330,338.385 150.500 C 338.653 148.905,339.036 147.600,339.236 147.600 C 339.436 147.600,339.600 147.233,339.600 146.784 C 339.600 145.881,340.692 143.584,342.124 141.473 C 342.637 140.718,343.660 137.809,344.398 135.009 C 345.135 132.209,345.933 129.712,346.169 129.459 C 346.406 129.207,346.918 128.370,347.306 127.600 C 347.694 126.830,348.538 125.300,349.182 124.200 C 349.826 123.100,351.004 120.175,351.801 117.700 C 352.597 115.225,353.396 113.200,353.576 113.200 C 353.756 113.200,354.131 112.615,354.411 111.900 C 354.690 111.185,355.520 109.700,356.255 108.600 C 356.991 107.500,357.969 105.528,358.429 104.217 C 359.576 100.949,360.281 99.672,361.850 98.017 C 362.589 97.238,363.195 96.471,363.197 96.313 C 363.205 95.579,367.273 87.600,367.639 87.600 C 368.928 87.600,370.832 85.395,371.565 83.054 C 372.381 80.447,374.303 75.934,374.739 75.600 C 377.626 73.388,380.330 60.425,379.829 51.200 C 379.214 39.895,378.058 35.678,375.161 34.180 C 374.468 33.822,373.686 32.947,373.359 32.165 C 372.496 30.097,370.146 27.695,368.678 27.378 C 367.332 27.088,364.340 25.696,364.000 25.202 C 363.603 24.626,361.356 23.698,359.200 23.219 C 356.216 22.556,356.157 22.551,353.200 22.678 " stroke="none" fill="#f07115" fill-rule="evenodd"></path><path id="path1" d="M353.500 17.475 C 351.106 17.559,349.200 17.798,349.200 18.014 C 349.200 18.226,347.985 18.401,346.500 18.403 C 342.714 18.407,336.303 20.052,332.400 22.022 C 331.850 22.299,330.860 23.197,330.200 24.017 C 329.540 24.836,328.506 25.843,327.903 26.253 C 327.300 26.664,326.400 27.765,325.904 28.700 C 325.408 29.635,324.881 30.400,324.733 30.400 C 324.376 30.400,323.289 33.771,322.961 35.896 C 322.675 37.750,321.910 38.737,319.253 40.677 C 318.292 41.379,317.090 42.565,316.583 43.311 C 315.977 44.203,314.999 44.918,313.730 45.397 C 312.669 45.798,311.710 46.233,311.600 46.363 C 310.118 48.117,303.602 48.136,301.591 46.392 C 300.501 45.447,295.688 44.788,291.957 45.074 C 287.968 45.379,284.986 44.683,283.690 43.142 C 283.161 42.514,282.503 42.000,282.226 42.000 C 281.950 42.000,281.413 41.656,281.033 41.237 C 280.653 40.817,279.770 40.242,279.071 39.959 C 278.372 39.677,277.710 39.332,277.600 39.193 C 277.490 39.054,275.883 38.617,274.029 38.221 C 271.633 37.710,269.802 36.996,267.701 35.754 C 264.649 33.950,262.062 33.043,258.600 32.565 C 257.500 32.413,256.500 32.136,256.379 31.948 C 256.257 31.761,252.117 31.418,247.179 31.185 C 242.240 30.953,234.240 30.508,229.400 30.196 C 221.834 29.709,220.348 29.709,218.800 30.193 C 217.556 30.581,213.112 30.877,204.409 31.150 C 196.169 31.409,191.769 31.693,191.676 31.973 C 191.597 32.208,190.947 32.400,190.231 32.400 C 187.138 32.400,180.978 34.474,177.911 36.547 C 177.092 37.101,175.061 37.715,172.500 38.184 C 170.245 38.596,168.400 39.044,168.400 39.180 C 168.400 39.315,167.546 39.677,166.503 39.985 C 165.185 40.375,164.027 41.140,162.709 42.493 C 160.815 44.438,160.804 44.442,156.436 45.177 C 154.029 45.581,151.822 46.103,151.530 46.336 C 149.263 48.149,147.600 49.771,147.417 50.348 C 147.268 50.815,146.289 51.247,144.339 51.705 C 142.127 52.224,141.194 52.673,140.219 53.688 C 137.568 56.449,132.541 60.400,131.679 60.400 C 131.312 60.400,128.000 63.992,128.000 64.391 C 128.000 64.584,126.787 65.315,125.303 66.016 C 122.771 67.213,120.317 69.371,119.802 70.856 C 119.672 71.229,118.762 71.713,117.687 71.980 C 115.626 72.492,112.800 74.229,112.800 74.984 C 112.800 75.245,111.541 76.589,110.002 77.970 C 107.519 80.198,107.124 80.757,106.487 82.940 C 105.847 85.130,105.625 85.443,104.463 85.789 C 102.435 86.392,100.792 88.019,99.855 90.351 C 99.156 92.089,98.676 92.654,97.256 93.414 C 95.283 94.469,94.806 95.053,93.837 97.600 C 92.940 99.957,92.071 100.968,90.019 102.037 C 89.090 102.521,88.212 103.224,88.066 103.599 C 87.440 105.205,84.914 108.346,83.419 109.377 C 81.506 110.696,79.048 114.300,78.411 116.718 C 78.075 117.998,77.563 118.713,76.408 119.518 C 74.877 120.586,73.994 122.066,73.257 124.800 C 72.093 129.115,71.119 130.893,68.524 133.446 C 67.753 134.204,66.998 135.550,66.614 136.850 C 65.089 142.010,64.658 143.058,63.659 144.031 C 60.579 147.031,59.575 148.684,58.664 152.259 C 58.319 153.612,57.598 155.192,57.061 155.772 C 56.524 156.351,55.571 157.855,54.942 159.113 C 54.314 160.371,53.669 161.459,53.508 161.531 C 53.208 161.665,51.889 165.918,51.385 168.377 C 51.230 169.135,50.847 170.010,50.535 170.323 C 49.702 171.155,47.341 174.924,47.022 175.932 C 46.870 176.409,46.586 176.800,46.390 176.800 C 46.195 176.800,45.593 178.195,45.053 179.900 C 44.514 181.605,43.608 183.810,43.041 184.800 C 42.474 185.790,41.449 188.400,40.763 190.600 C 40.078 192.800,39.374 194.690,39.200 194.800 C 38.834 195.031,38.147 199.562,37.775 204.200 C 37.633 205.960,37.299 207.760,37.031 208.200 C 35.347 210.971,32.400 222.304,32.400 226.014 C 32.400 226.886,32.253 227.600,32.074 227.600 C 31.895 227.600,31.539 229.603,31.283 232.051 C 30.909 235.632,30.635 236.745,29.882 237.751 C 27.647 240.736,26.242 246.852,25.773 255.638 C 25.615 258.587,25.315 261.111,25.106 261.246 C 24.039 261.938,24.084 346.511,25.152 347.171 C 25.566 347.426,25.832 349.651,26.215 356.056 C 26.768 365.330,27.380 368.094,29.633 371.485 C 30.636 372.994,30.805 373.754,31.255 378.785 C 31.531 381.873,31.902 384.400,32.079 384.400 C 32.255 384.400,32.400 384.924,32.400 385.565 C 32.400 388.199,33.671 393.041,35.527 397.482 C 37.286 401.688,37.568 402.785,38.128 407.593 C 38.473 410.559,38.946 413.049,39.178 413.126 C 39.410 413.203,39.600 413.465,39.600 413.707 C 39.600 413.949,39.934 414.879,40.341 415.774 C 40.749 416.668,41.576 418.607,42.179 420.082 C 42.782 421.557,43.528 422.974,43.837 423.231 C 44.147 423.488,44.400 424.119,44.400 424.634 C 44.400 425.910,45.963 430.000,46.451 430.000 C 46.668 430.000,47.215 430.855,47.668 431.900 C 48.120 432.945,49.097 434.434,49.839 435.210 C 50.797 436.212,51.300 437.218,51.579 438.688 C 52.040 441.118,53.013 443.600,53.506 443.600 C 53.697 443.600,54.275 444.365,54.792 445.300 C 55.309 446.235,56.309 447.650,57.015 448.445 C 57.721 449.239,58.692 451.075,59.175 452.524 C 60.044 455.135,62.517 457.600,64.269 457.600 C 64.561 457.600,64.801 457.915,64.802 458.300 C 64.809 460.573,65.784 462.294,68.596 465.000 C 70.196 466.540,71.790 468.340,72.138 469.000 C 72.487 469.660,74.500 471.992,76.612 474.182 C 78.724 476.372,80.724 478.622,81.058 479.182 C 81.391 479.742,82.234 480.637,82.932 481.171 C 83.629 481.706,84.920 483.025,85.800 484.104 C 88.236 487.089,95.798 494.253,98.336 495.981 C 98.513 496.101,98.766 496.494,98.898 496.853 C 99.030 497.212,100.457 498.019,102.069 498.647 C 103.681 499.275,106.252 500.556,107.782 501.495 C 109.311 502.433,110.796 503.200,111.082 503.200 C 111.367 503.200,111.600 503.366,111.600 503.569 C 111.600 504.011,113.442 504.647,116.251 505.175 C 117.379 505.387,119.166 506.144,120.223 506.857 C 122.106 508.128,127.893 510.400,129.247 510.400 C 129.625 510.400,129.993 510.558,130.067 510.751 C 130.140 510.944,132.630 511.373,135.600 511.706 C 139.742 512.169,141.745 512.606,144.200 513.582 C 145.960 514.281,148.390 515.208,149.600 515.640 C 151.862 516.450,158.532 517.600,160.964 517.600 C 161.717 517.600,162.395 517.786,162.471 518.014 C 162.876 519.227,206.275 519.168,206.733 517.953 C 206.807 517.759,208.337 517.597,210.133 517.593 C 218.009 517.575,229.816 514.965,232.800 512.583 C 233.130 512.319,235.200 511.874,237.400 511.593 C 239.600 511.312,241.490 510.968,241.600 510.828 C 241.710 510.688,242.970 510.346,244.400 510.067 C 248.307 509.307,250.723 508.449,253.600 506.801 C 255.217 505.874,257.447 505.039,259.500 504.590 C 261.315 504.194,262.800 503.740,262.800 503.583 C 262.800 503.426,263.319 503.082,263.953 502.819 C 265.344 502.243,267.009 500.534,267.382 499.300 C 267.574 498.665,267.962 498.400,268.701 498.400 C 270.157 498.400,274.400 497.170,274.400 496.747 C 274.400 496.556,274.715 496.399,275.100 496.398 C 276.850 496.392,278.947 495.419,281.017 493.653 C 282.253 492.598,284.152 491.416,285.236 491.026 C 286.320 490.636,287.340 490.091,287.503 489.815 C 287.666 489.539,288.455 489.100,289.255 488.840 C 290.133 488.555,291.504 487.501,292.710 486.184 C 294.048 484.724,295.024 483.999,295.655 483.998 C 297.599 483.993,299.529 483.147,301.238 481.550 C 304.433 478.564,304.988 478.108,306.200 477.477 C 306.860 477.133,307.850 476.436,308.400 475.926 C 308.950 475.417,310.063 474.505,310.873 473.900 C 311.683 473.295,312.449 472.485,312.575 472.100 C 312.856 471.239,314.887 469.895,316.918 469.226 C 318.536 468.693,320.084 467.293,321.034 465.504 C 321.355 464.901,322.378 464.025,323.308 463.557 C 325.625 462.393,326.333 461.703,327.428 459.543 C 328.162 458.096,328.793 457.486,330.285 456.781 C 332.891 455.550,333.516 454.944,334.473 452.719 C 335.173 451.091,335.627 450.644,337.535 449.699 C 339.767 448.595,339.976 448.340,341.575 444.782 C 342.193 443.407,342.725 442.843,343.754 442.471 C 345.614 441.798,347.454 440.043,347.781 438.628 C 347.930 437.983,348.925 436.500,349.993 435.331 C 351.061 434.163,352.046 432.703,352.181 432.088 C 352.343 431.347,353.498 430.050,355.596 428.253 C 357.340 426.759,358.867 425.220,358.989 424.834 C 359.112 424.447,360.695 422.865,362.506 421.318 C 365.337 418.901,365.934 418.162,366.754 416.068 C 367.279 414.727,367.857 413.579,368.038 413.515 C 368.220 413.452,368.667 412.232,369.032 410.804 C 369.507 408.945,370.081 407.811,371.055 406.808 C 372.472 405.349,373.811 402.325,374.247 399.596 C 374.387 398.718,374.659 398.000,374.851 398.000 C 375.043 398.000,375.198 397.685,375.195 397.300 C 375.181 395.351,376.627 390.471,377.595 389.200 C 379.102 387.222,380.630 384.457,381.187 382.700 C 381.448 381.875,381.821 381.200,382.015 381.200 C 382.209 381.200,382.584 380.480,382.847 379.600 L 383.327 378.000 386.801 378.000 C 392.905 378.000,393.302 376.176,387.300 375.710 C 385.705 375.586,384.400 375.331,384.400 375.142 C 384.400 374.954,384.159 374.800,383.864 374.800 C 383.537 374.800,383.127 373.902,382.815 372.500 C 382.534 371.235,382.100 370.068,381.852 369.906 C 381.530 369.697,381.543 369.610,381.900 369.606 C 382.287 369.601,382.400 367.250,382.400 359.200 C 382.400 353.421,382.242 348.800,382.045 348.800 C 381.850 348.800,381.566 347.945,381.412 346.900 C 380.811 342.799,378.752 339.677,375.000 337.178 C 371.681 334.967,368.643 332.786,368.402 332.439 C 366.321 329.449,351.594 329.885,348.008 333.042 C 340.869 339.329,337.054 343.922,336.346 347.083 C 335.970 348.766,335.609 349.379,334.635 349.990 C 331.992 351.646,331.071 353.236,328.733 360.183 C 328.414 361.130,327.201 362.783,325.711 364.298 C 324.035 366.004,323.085 367.343,322.800 368.400 C 322.443 369.725,321.850 370.352,318.989 372.431 C 317.125 373.785,315.600 375.022,315.600 375.179 C 315.600 375.488,314.836 375.903,311.942 377.169 C 310.023 378.008,309.200 379.304,309.200 381.486 C 309.200 382.950,308.476 384.000,307.466 384.000 C 305.079 384.000,302.703 386.568,302.322 389.560 C 302.226 390.313,301.811 390.637,300.400 391.062 C 297.703 391.873,295.200 394.408,295.200 396.328 C 295.200 396.950,294.823 397.166,293.350 397.387 C 291.427 397.675,289.600 399.037,289.600 400.182 C 289.600 400.522,289.436 400.800,289.235 400.800 C 289.034 400.800,288.751 401.509,288.604 402.375 C 288.339 403.944,288.329 403.951,286.109 404.229 C 283.568 404.546,281.604 406.032,281.595 407.643 C 281.584 409.559,281.144 410.400,280.153 410.400 C 279.629 410.400,279.200 410.580,279.200 410.800 C 279.200 411.020,278.975 411.201,278.700 411.202 C 278.425 411.204,277.750 411.449,277.200 411.748 C 276.650 412.047,275.248 412.795,274.085 413.411 C 272.921 414.026,271.438 415.135,270.789 415.874 C 270.140 416.613,269.066 417.327,268.404 417.459 C 267.742 417.592,267.200 417.820,267.200 417.967 C 267.200 418.114,266.364 418.458,265.342 418.731 C 264.320 419.004,262.988 419.582,262.380 420.014 C 261.773 420.446,261.100 420.800,260.885 420.800 C 260.669 420.800,259.852 421.510,259.068 422.378 C 258.162 423.381,257.016 424.138,255.921 424.458 C 254.975 424.735,254.110 425.077,254.000 425.220 C 253.890 425.362,253.018 425.601,252.063 425.750 C 251.108 425.899,249.630 426.376,248.779 426.811 C 247.928 427.245,246.962 427.600,246.633 427.600 C 246.303 427.600,245.281 428.316,244.362 429.191 C 242.407 431.050,242.345 431.074,238.214 431.598 C 236.472 431.819,234.947 432.146,234.824 432.325 C 234.701 432.503,233.556 433.068,232.281 433.579 C 230.491 434.296,229.766 434.848,229.105 435.997 L 228.248 437.486 223.224 437.745 C 201.835 438.848,179.298 438.369,177.154 436.764 C 175.531 435.550,169.202 432.800,168.031 432.800 C 167.574 432.800,167.200 432.648,167.200 432.463 C 167.200 432.278,166.123 431.801,164.806 431.402 C 163.490 431.003,162.112 430.345,161.744 429.939 C 161.377 429.532,160.856 429.200,160.587 429.200 C 160.318 429.200,159.863 428.917,159.576 428.571 C 158.762 427.590,156.191 426.415,153.914 425.984 C 152.774 425.767,151.742 425.448,151.621 425.273 C 151.499 425.098,150.770 424.708,150.000 424.407 C 148.012 423.631,146.657 422.625,144.067 420.006 C 142.820 418.745,141.358 417.575,140.819 417.404 C 139.608 417.022,139.213 416.604,138.213 414.649 C 137.446 413.150,135.125 411.200,134.107 411.200 C 133.828 411.200,133.600 411.020,133.600 410.800 C 133.600 410.580,133.330 410.400,133.000 410.400 C 132.670 410.400,132.400 410.130,132.400 409.800 C 132.400 409.470,132.240 409.200,132.043 409.200 C 131.847 409.200,131.570 408.733,131.426 408.163 C 130.895 406.046,127.592 399.754,126.302 398.400 C 125.568 397.630,124.633 396.100,124.224 395.000 C 123.726 393.661,122.707 392.239,121.140 390.698 C 119.853 389.432,118.800 388.139,118.800 387.826 C 118.800 387.513,118.569 387.019,118.287 386.729 C 118.005 386.438,117.080 384.633,116.232 382.718 C 115.383 380.802,114.084 378.575,113.345 377.767 C 112.605 376.960,112.000 375.902,112.000 375.416 C 112.000 373.871,111.103 370.000,110.745 370.000 C 110.555 370.000,110.400 369.447,110.400 368.771 C 110.400 367.221,108.653 359.584,107.649 356.746 C 105.448 350.525,104.623 344.901,104.119 332.700 C 103.985 329.455,103.749 326.800,103.594 326.800 C 103.306 326.800,102.990 322.323,102.536 311.821 C 102.261 305.450,103.083 288.400,103.666 288.400 C 103.850 288.400,104.000 287.197,104.000 285.726 C 104.000 272.490,105.621 259.915,108.399 251.600 C 109.024 249.730,109.764 246.535,110.044 244.500 C 110.324 242.465,110.672 240.800,110.817 240.800 C 110.962 240.800,111.316 238.595,111.605 235.900 C 111.918 232.967,112.444 230.277,112.915 229.200 C 114.866 224.730,117.586 216.537,117.595 215.100 C 117.598 214.715,117.764 214.400,117.965 214.400 C 118.166 214.400,118.448 213.635,118.592 212.700 C 118.736 211.765,119.471 209.740,120.227 208.200 C 120.982 206.660,121.859 204.230,122.177 202.800 C 122.495 201.370,123.117 199.210,123.560 198.000 C 124.002 196.790,124.486 194.765,124.634 193.500 C 124.782 192.235,125.060 191.200,125.252 191.200 C 125.443 191.200,125.600 190.142,125.600 188.849 C 125.600 186.607,125.657 186.474,126.814 185.994 C 128.613 185.249,129.474 183.896,130.658 179.951 C 131.244 177.998,131.876 176.400,132.062 176.400 C 132.248 176.400,132.400 175.882,132.400 175.248 C 132.400 174.376,132.818 173.754,134.123 172.685 C 135.871 171.252,136.504 170.083,137.836 165.828 C 138.326 164.264,139.025 163.051,139.889 162.264 C 140.610 161.608,141.200 160.904,141.200 160.699 C 141.200 160.495,141.801 159.626,142.534 158.768 C 143.268 157.911,144.071 156.532,144.318 155.705 C 144.565 154.877,144.969 153.522,145.217 152.693 C 145.521 151.675,146.057 150.984,146.869 150.564 C 148.292 149.828,150.487 145.380,151.548 141.080 C 152.213 138.386,152.240 138.350,154.386 137.278 C 156.225 136.359,156.741 135.837,157.803 133.824 C 158.492 132.520,159.313 131.324,159.627 131.167 C 159.942 131.010,160.991 130.554,161.958 130.154 C 162.924 129.754,164.406 128.763,165.250 127.952 C 166.459 126.791,167.226 126.416,168.862 126.191 C 170.847 125.918,174.400 123.257,174.400 122.044 C 174.400 121.850,175.705 120.911,177.300 119.956 C 178.895 119.001,180.435 117.900,180.723 117.510 C 181.010 117.119,181.491 116.800,181.792 116.800 C 182.092 116.800,183.117 115.741,184.069 114.448 C 185.784 112.116,185.824 112.091,188.478 111.683 C 189.952 111.457,191.392 111.082,191.678 110.850 C 191.965 110.618,192.830 109.903,193.600 109.262 C 195.467 107.707,200.157 105.200,201.200 105.200 C 202.537 105.200,208.179 103.957,208.399 103.614 C 208.510 103.441,209.230 103.166,210.000 103.002 C 210.770 102.838,211.872 102.462,212.450 102.168 C 214.869 100.932,234.279 99.937,235.940 100.963 C 236.187 101.115,237.394 101.404,238.623 101.604 C 240.914 101.977,244.000 103.139,244.000 103.628 C 244.000 103.779,245.205 104.205,246.678 104.575 C 248.565 105.050,249.803 105.652,250.869 106.615 C 251.701 107.367,252.972 108.228,253.692 108.529 C 254.413 108.830,255.704 109.959,256.561 111.038 C 258.327 113.261,260.389 115.173,261.035 115.189 C 261.274 115.195,262.229 116.010,263.157 117.000 C 264.085 117.990,265.011 118.800,265.215 118.800 C 265.419 118.800,266.063 119.745,266.646 120.900 C 267.228 122.055,267.834 123.090,267.991 123.200 C 269.502 124.256,269.522 156.659,268.013 157.592 C 266.416 158.579,261.600 171.976,261.600 175.431 C 261.600 175.758,261.015 176.615,260.300 177.335 C 256.837 180.819,255.660 185.668,255.232 198.200 C 254.714 213.352,256.343 221.673,260.380 224.501 C 260.803 224.797,261.535 226.020,262.008 227.220 C 263.060 229.890,265.413 233.069,266.919 233.856 C 267.535 234.178,268.654 235.121,269.405 235.953 C 270.157 236.785,271.543 237.806,272.486 238.222 C 273.429 238.638,274.290 239.101,274.401 239.252 C 274.682 239.635,280.481 240.800,282.108 240.800 C 282.846 240.800,284.249 241.200,285.225 241.688 C 288.534 243.343,294.822 243.182,297.200 241.380 C 297.725 240.982,298.954 240.731,305.100 239.768 C 305.815 239.655,306.400 239.404,306.400 239.209 C 306.400 239.014,306.726 238.750,307.125 238.624 C 307.831 238.400,310.400 235.116,310.400 234.438 C 310.400 234.252,310.904 233.999,311.521 233.876 C 312.269 233.726,313.254 232.871,314.484 231.306 C 315.498 230.015,317.214 228.068,318.298 226.979 C 319.613 225.657,320.558 224.223,321.141 222.667 C 321.749 221.040,322.648 219.710,324.113 218.267 C 326.589 215.830,327.233 214.045,328.353 206.517 C 329.096 201.518,329.628 200.295,332.038 198.051 C 333.709 196.494,334.480 193.008,335.455 182.600 C 335.675 180.250,335.917 179.569,336.959 178.363 C 339.263 175.694,339.551 175.251,340.182 173.391 C 340.529 172.371,341.156 168.290,341.576 164.322 C 342.272 157.748,342.428 157.013,343.328 156.053 C 343.872 155.474,344.718 154.055,345.208 152.900 C 345.698 151.745,346.232 150.800,346.395 150.800 C 347.121 150.800,349.200 142.854,349.200 140.079 C 349.200 139.410,349.556 138.604,350.046 138.162 C 351.131 137.186,353.191 133.613,353.196 132.700 C 353.198 132.315,353.366 132.000,353.568 132.000 C 354.009 132.000,354.969 129.104,355.622 125.805 C 355.993 123.929,356.454 123.012,357.748 121.571 C 358.657 120.559,359.670 119.207,359.999 118.565 C 360.329 117.924,360.816 117.260,361.082 117.090 C 361.348 116.919,361.882 115.749,362.268 114.490 C 362.654 113.230,363.386 111.480,363.893 110.600 C 364.401 109.720,365.488 107.650,366.308 106.000 C 367.129 104.350,367.932 102.901,368.092 102.781 C 368.253 102.661,368.720 101.219,369.131 99.578 C 369.996 96.116,372.302 92.157,374.219 90.843 C 375.115 90.229,375.693 89.388,376.051 88.173 C 376.339 87.197,377.330 85.552,378.253 84.518 C 379.776 82.812,381.606 78.429,381.601 76.500 C 381.601 76.225,381.758 76.000,381.951 76.000 C 382.145 76.000,382.509 74.611,382.762 72.914 C 383.014 71.217,383.458 69.462,383.748 69.014 C 388.615 61.499,388.799 43.067,384.074 36.400 C 383.684 35.850,383.109 34.590,382.796 33.600 C 382.483 32.610,382.024 31.620,381.777 31.400 C 381.530 31.180,381.012 30.140,380.627 29.089 C 380.241 28.037,379.222 26.287,378.363 25.200 C 377.503 24.113,376.800 22.988,376.800 22.701 C 376.800 20.983,374.617 19.903,369.027 18.856 C 367.722 18.612,366.524 18.200,366.364 17.942 C 366.042 17.421,360.594 17.223,353.500 17.475 M359.200 23.219 C 361.356 23.698,363.603 24.626,364.000 25.202 C 364.340 25.696,367.332 27.088,368.678 27.378 C 370.146 27.695,372.496 30.097,373.359 32.165 C 373.686 32.947,374.468 33.822,375.161 34.180 C 378.058 35.678,379.214 39.895,379.829 51.200 C 380.330 60.425,377.626 73.388,374.739 75.600 C 374.303 75.934,372.381 80.447,371.565 83.054 C 370.832 85.395,368.928 87.600,367.639 87.600 C 367.273 87.600,363.205 95.579,363.197 96.313 C 363.195 96.471,362.589 97.238,361.850 98.017 C 360.281 99.672,359.576 100.949,358.429 104.217 C 357.969 105.528,356.991 107.500,356.255 108.600 C 355.520 109.700,354.690 111.185,354.411 111.900 C 354.131 112.615,353.756 113.200,353.576 113.200 C 353.396 113.200,352.597 115.225,351.801 117.700 C 351.004 120.175,349.826 123.100,349.182 124.200 C 348.538 125.300,347.694 126.830,347.306 127.600 C 346.918 128.370,346.406 129.207,346.169 129.459 C 345.933 129.712,345.135 132.209,344.398 135.009 C 343.660 137.809,342.637 140.718,342.124 141.473 C 340.692 143.584,339.600 145.881,339.600 146.784 C 339.600 147.233,339.436 147.600,339.236 147.600 C 339.036 147.600,338.653 148.905,338.385 150.500 C 337.069 158.330,336.036 162.243,334.703 164.457 C 333.960 165.692,333.109 167.714,332.812 168.951 C 332.515 170.188,332.140 171.200,331.977 171.200 C 331.815 171.200,331.469 172.775,331.207 174.700 C 330.508 179.842,329.425 184.074,328.248 186.266 C 326.829 188.905,325.670 192.734,325.353 195.825 C 325.208 197.241,324.934 198.400,324.745 198.400 C 324.555 198.400,324.400 198.818,324.400 199.328 C 324.400 202.289,322.758 207.810,321.469 209.186 C 320.740 209.964,319.707 211.500,319.172 212.600 C 318.637 213.700,318.066 214.660,317.902 214.733 C 317.738 214.806,317.321 215.886,316.975 217.133 C 315.965 220.779,315.587 221.517,314.599 221.764 C 313.333 222.082,310.750 224.675,309.928 226.455 C 309.456 227.476,308.597 228.286,307.044 229.175 C 305.827 229.871,303.970 231.317,302.916 232.389 C 297.518 237.877,279.930 238.276,277.411 232.967 C 277.039 232.182,275.960 231.153,274.696 230.378 C 268.558 226.612,266.122 222.759,264.595 214.400 C 264.013 211.210,263.205 207.430,262.801 206.000 C 261.599 201.749,261.471 200.202,262.144 198.106 C 262.822 195.996,263.559 192.325,264.816 184.800 C 266.086 177.189,267.383 172.427,268.373 171.734 C 270.486 170.254,271.596 165.960,272.803 154.600 C 273.990 143.435,274.473 140.000,274.857 140.000 C 275.046 140.000,275.200 139.010,275.200 137.800 C 275.200 136.590,275.020 135.600,274.800 135.600 C 274.580 135.600,274.400 134.734,274.400 133.675 C 274.400 131.487,273.503 124.410,272.682 120.118 C 272.021 116.663,270.620 114.375,268.393 113.114 C 267.412 112.559,266.682 111.808,266.531 111.200 C 266.093 109.433,262.860 104.810,261.704 104.296 C 261.097 104.026,260.298 103.534,259.929 103.203 C 259.559 102.871,258.119 102.170,256.729 101.644 C 252.270 99.959,249.433 98.510,248.141 97.257 C 246.435 95.603,242.735 94.433,237.855 94.006 C 233.018 93.582,211.416 94.165,208.800 94.789 C 206.495 95.340,204.800 96.017,204.800 96.388 C 204.800 96.548,204.125 96.980,203.300 97.348 C 202.475 97.717,201.311 98.291,200.714 98.624 C 200.117 98.957,198.047 99.600,196.114 100.053 C 189.734 101.547,187.523 102.409,186.211 103.910 C 184.733 105.600,182.846 106.812,180.200 107.770 C 178.106 108.529,175.607 110.001,175.603 110.479 C 175.601 110.633,175.195 111.196,174.700 111.730 C 173.892 112.602,172.880 113.221,167.485 116.144 C 166.651 116.595,165.515 117.560,164.961 118.287 C 164.406 119.014,162.812 120.473,161.419 121.527 C 160.025 122.582,157.939 124.695,156.784 126.223 C 155.628 127.750,154.084 129.630,153.353 130.400 C 149.888 134.049,148.744 135.502,147.714 137.560 C 147.101 138.784,145.921 140.508,145.090 141.392 C 144.260 142.277,142.708 144.800,141.640 147.000 C 140.524 149.301,138.997 151.731,138.046 152.721 C 136.237 154.603,134.899 157.015,133.798 160.375 C 133.407 161.570,132.582 163.010,131.965 163.575 C 130.925 164.526,128.000 170.240,128.000 171.322 C 127.999 172.152,125.652 176.800,125.234 176.800 C 124.444 176.800,122.740 180.415,121.194 185.370 C 119.407 191.096,119.001 192.000,118.211 192.000 C 117.299 192.000,115.291 196.650,113.978 201.800 C 112.818 206.354,111.394 210.000,110.776 210.000 C 110.620 210.000,110.397 210.405,110.280 210.900 C 110.162 211.395,109.779 212.790,109.427 214.000 C 109.076 215.210,108.429 218.630,107.989 221.600 C 106.528 231.467,105.113 236.748,103.593 238.000 C 102.542 238.866,101.360 245.228,100.808 253.000 C 100.268 260.595,98.995 270.281,98.206 272.800 C 97.896 273.790,97.424 275.770,97.157 277.200 C 96.890 278.630,96.535 279.892,96.367 280.004 C 94.367 281.346,94.373 329.873,96.373 331.197 C 96.542 331.309,96.777 332.140,96.895 333.045 C 97.012 333.949,97.479 335.929,97.931 337.445 C 98.997 341.013,100.235 348.996,100.975 357.063 C 101.511 362.902,102.753 368.570,103.634 369.200 C 104.541 369.848,106.466 374.852,107.361 378.884 C 108.547 384.234,109.837 387.963,110.603 388.257 C 111.206 388.488,113.817 393.770,115.214 397.583 C 115.872 399.380,116.684 400.668,117.880 401.815 C 118.826 402.721,119.600 403.555,119.600 403.668 C 119.600 403.780,120.500 405.370,121.600 407.200 C 122.700 409.030,123.600 410.735,123.600 410.988 C 123.600 411.240,124.607 412.317,125.838 413.379 C 127.069 414.442,128.582 416.011,129.201 416.865 C 129.852 417.763,132.242 419.704,134.863 421.464 C 137.359 423.138,139.884 425.084,140.475 425.788 C 141.436 426.934,142.622 427.571,148.057 429.867 C 148.858 430.205,150.157 431.162,150.944 431.992 C 151.917 433.019,153.625 434.042,156.287 435.192 C 163.320 438.230,165.796 439.372,166.019 439.681 C 166.359 440.153,173.322 441.468,178.200 441.982 C 187.062 442.916,189.505 443.248,194.691 444.224 C 199.125 445.059,200.357 445.156,202.291 444.821 C 211.371 443.250,214.549 442.859,220.200 442.619 C 229.464 442.224,236.294 441.118,237.400 439.833 C 239.054 437.912,242.228 436.446,249.117 434.423 C 250.721 433.952,252.386 433.214,252.817 432.783 C 253.247 432.353,253.758 432.000,253.951 432.000 C 254.144 432.000,254.535 431.720,254.819 431.377 C 255.444 430.624,257.153 429.886,261.400 428.532 C 264.890 427.420,267.916 425.859,268.698 424.767 C 269.296 423.930,273.762 421.412,275.293 421.048 C 276.541 420.751,279.200 418.560,279.200 417.828 C 279.200 417.030,280.983 415.595,282.493 415.179 C 284.072 414.743,287.600 411.834,287.600 410.968 C 287.600 410.658,288.407 410.025,289.394 409.561 C 291.498 408.572,294.096 406.100,294.788 404.428 C 295.079 403.725,295.744 403.089,296.440 402.846 C 297.081 402.623,298.999 401.095,300.702 399.452 C 302.406 397.808,304.353 396.010,305.029 395.456 C 305.704 394.902,306.784 393.684,307.429 392.749 C 308.738 390.848,310.278 389.200,310.743 389.200 C 311.323 389.200,313.353 386.796,314.376 384.899 C 315.058 383.635,315.701 382.957,316.300 382.872 C 316.795 382.802,317.200 382.577,317.200 382.372 C 317.200 382.167,317.621 382.000,318.136 382.000 C 321.545 382.000,325.038 379.544,326.044 376.440 C 326.599 374.730,327.598 373.206,329.673 370.909 C 330.513 369.979,331.200 369.047,331.200 368.838 C 331.200 368.628,331.441 368.216,331.736 367.922 C 332.030 367.627,332.960 365.769,333.801 363.793 C 334.643 361.817,335.839 359.613,336.458 358.895 C 337.078 358.177,337.884 357.007,338.248 356.295 C 338.613 355.583,339.034 354.910,339.183 354.800 C 339.332 354.690,340.030 353.359,340.734 351.841 C 341.437 350.324,342.595 348.408,343.306 347.583 C 344.018 346.758,345.140 345.411,345.800 344.589 C 348.598 341.106,349.295 340.443,350.417 340.196 C 351.068 340.053,351.600 339.774,351.600 339.576 C 351.600 339.378,352.095 339.097,352.700 338.951 C 353.305 338.806,354.340 338.405,355.000 338.058 C 357.561 336.715,365.155 337.839,365.931 339.676 C 366.003 339.846,366.813 340.188,367.730 340.435 C 369.329 340.866,371.817 342.986,373.821 345.626 C 374.250 346.190,375.086 346.970,375.680 347.359 C 376.941 348.184,377.415 349.484,377.956 353.600 C 378.794 359.981,377.480 366.178,374.697 368.960 C 373.760 369.897,373.790 370.018,375.378 371.803 C 376.135 372.655,377.012 374.133,377.327 375.088 C 377.961 377.013,378.103 376.770,374.329 380.212 C 373.277 381.171,372.683 382.381,371.480 386.012 C 369.993 390.502,368.733 393.305,367.757 394.294 C 367.185 394.873,366.491 397.858,366.011 401.800 C 365.495 406.034,363.439 411.480,361.757 413.066 C 360.994 413.786,360.099 415.022,359.769 415.812 C 359.202 417.169,355.951 420.803,354.200 422.036 C 353.760 422.346,352.862 423.392,352.205 424.359 C 351.547 425.326,350.383 426.586,349.618 427.159 C 347.871 428.466,344.400 432.001,344.400 432.473 C 344.400 432.668,343.181 434.047,341.690 435.538 C 340.200 437.028,338.321 439.137,337.515 440.224 C 336.710 441.311,335.217 442.830,334.199 443.600 C 333.180 444.370,330.714 446.575,328.719 448.500 C 326.723 450.425,324.941 452.000,324.759 452.000 C 324.390 452.000,321.904 454.146,319.421 456.607 C 318.530 457.491,317.080 458.750,316.200 459.405 C 315.320 460.060,314.510 460.686,314.400 460.798 C 313.665 461.541,310.779 463.600,310.472 463.600 C 310.266 463.600,309.854 463.894,309.555 464.254 C 309.256 464.614,308.289 465.360,307.406 465.910 C 306.523 466.461,304.720 468.022,303.400 469.379 C 302.080 470.736,299.992 472.515,298.759 473.331 C 297.527 474.148,295.547 475.719,294.359 476.822 C 293.116 477.978,290.819 479.491,288.944 480.390 C 287.153 481.248,284.903 482.680,283.944 483.571 C 282.968 484.478,281.320 485.484,280.200 485.856 C 276.048 487.239,273.295 488.818,272.228 490.429 C 271.067 492.184,269.037 493.365,266.439 493.798 C 263.385 494.306,259.543 495.858,258.134 497.151 C 255.631 499.448,256.006 499.295,245.725 502.218 C 244.583 502.543,243.408 503.031,243.114 503.304 C 240.717 505.525,236.668 506.848,229.400 507.787 C 226.760 508.127,223.160 508.593,221.400 508.822 C 218.032 509.260,213.938 510.281,213.600 510.767 C 213.344 511.136,207.992 512.162,201.600 513.068 C 188.728 514.892,162.196 513.307,159.305 510.540 C 158.655 509.919,154.347 508.977,149.600 508.419 C 139.261 507.203,135.175 506.127,132.921 504.027 C 132.449 503.587,130.564 502.741,128.731 502.147 C 123.386 500.414,119.271 498.768,118.769 498.162 C 118.512 497.853,118.063 497.600,117.771 497.600 C 117.479 497.600,117.096 497.358,116.920 497.063 C 116.326 496.066,114.618 495.251,110.006 493.764 C 105.672 492.368,103.200 490.846,103.200 489.575 C 103.200 489.388,101.800 488.323,100.088 487.208 C 98.376 486.093,96.531 484.609,95.988 483.910 C 95.445 483.210,94.474 482.179,93.831 481.619 C 91.364 479.469,88.000 475.881,88.000 475.399 C 88.000 475.123,87.010 474.149,85.800 473.235 C 84.590 472.322,83.600 471.388,83.600 471.160 C 83.600 470.684,80.063 467.200,79.581 467.200 C 78.814 467.200,76.695 464.954,76.130 463.542 C 75.791 462.694,75.348 462.000,75.147 462.000 C 74.945 462.000,74.624 461.589,74.433 461.086 C 74.242 460.583,73.428 459.818,72.625 459.386 C 71.297 458.672,68.800 454.645,68.800 453.219 C 68.800 453.010,68.566 452.696,68.280 452.520 C 67.994 452.344,67.284 451.376,66.703 450.368 C 66.122 449.361,65.351 448.292,64.991 447.993 C 64.631 447.694,63.610 445.908,62.722 444.025 C 61.834 442.141,60.859 440.456,60.554 440.280 C 60.249 440.104,60.000 439.753,60.000 439.499 C 60.000 439.246,59.488 438.490,58.861 437.819 C 57.648 436.520,56.558 433.982,55.209 429.317 C 54.751 427.731,54.111 426.169,53.788 425.845 C 53.465 425.522,53.198 425.109,53.196 424.929 C 53.194 424.748,52.601 423.856,51.878 422.948 C 50.303 420.966,49.670 419.519,47.965 414.000 C 47.252 411.690,46.542 409.710,46.387 409.600 C 44.934 408.569,43.026 402.293,41.582 393.800 C 40.666 388.417,39.646 384.400,39.194 384.400 C 38.162 384.400,36.301 377.184,35.635 370.600 C 35.183 366.125,34.266 356.816,33.792 351.871 C 33.544 349.289,33.449 349.085,32.020 348.071 C 28.772 345.768,28.509 344.458,28.278 329.423 C 28.167 322.175,28.243 314.472,28.447 312.304 C 28.685 309.777,28.674 307.186,28.418 305.082 C 28.157 302.948,28.152 300.890,28.402 299.200 C 28.613 297.770,28.973 293.180,29.201 289.000 C 30.051 273.397,31.089 263.831,31.998 263.200 C 32.157 263.090,32.500 261.283,32.762 259.183 C 33.023 257.084,33.592 254.024,34.026 252.383 C 34.465 250.723,35.082 246.117,35.418 242.000 C 36.285 231.351,37.499 225.784,39.255 224.401 C 39.760 224.004,40.433 220.863,41.827 212.400 C 43.729 200.860,43.937 200.209,46.644 197.327 C 46.888 197.068,47.593 194.998,48.211 192.727 C 49.526 187.896,50.334 185.913,51.761 184.022 C 52.332 183.265,52.800 182.437,52.800 182.183 C 52.800 181.930,53.130 181.342,53.533 180.877 C 53.936 180.413,54.665 178.360,55.152 176.316 C 56.318 171.427,59.580 164.220,60.876 163.669 C 61.046 163.597,61.544 162.337,61.984 160.869 C 62.423 159.401,63.398 157.300,64.149 156.200 C 64.900 155.100,66.028 153.210,66.656 152.000 C 67.284 150.790,68.016 149.569,68.283 149.287 C 68.550 149.005,68.890 148.105,69.037 147.287 C 69.602 144.163,72.774 138.483,75.008 136.599 C 75.585 136.111,77.200 133.007,77.200 132.385 C 77.200 132.140,77.911 130.945,78.780 129.732 C 79.650 128.518,80.654 126.642,81.013 125.562 C 81.371 124.483,81.827 123.600,82.026 123.600 C 82.226 123.600,82.945 122.497,83.626 121.148 C 84.307 119.799,85.316 118.224,85.868 117.648 C 86.420 117.072,87.350 115.880,87.936 115.000 C 88.521 114.120,89.315 113.051,89.700 112.625 C 90.085 112.198,90.400 111.692,90.400 111.500 C 90.400 111.308,91.687 109.857,93.260 108.275 C 96.721 104.796,97.200 104.245,97.200 103.745 C 97.200 103.531,97.864 102.646,98.675 101.778 C 100.676 99.636,102.800 96.876,102.800 96.416 C 102.800 96.209,103.041 95.896,103.336 95.720 C 103.631 95.544,104.368 94.545,104.974 93.500 C 105.580 92.455,106.204 91.600,106.360 91.600 C 106.752 91.600,109.152 89.236,110.600 87.424 C 111.260 86.597,112.233 85.534,112.763 85.061 C 114.648 83.376,116.221 81.751,117.683 79.973 C 118.551 78.920,120.212 77.613,121.683 76.829 C 123.068 76.090,124.344 75.242,124.520 74.943 C 124.696 74.644,125.093 74.400,125.401 74.400 C 125.710 74.400,127.006 73.400,128.282 72.177 C 129.557 70.955,131.320 69.581,132.200 69.124 C 133.080 68.667,134.830 67.215,136.090 65.896 C 137.437 64.486,139.229 63.106,140.446 62.542 C 141.583 62.015,143.073 61.036,143.756 60.367 C 145.251 58.903,151.463 55.284,153.397 54.750 C 154.157 54.540,155.696 53.476,156.815 52.385 C 157.935 51.295,159.334 50.302,159.925 50.179 C 166.469 48.820,172.358 47.098,172.799 46.416 C 173.853 44.785,178.511 43.026,186.111 41.387 C 190.922 40.350,192.822 39.778,193.192 39.256 C 197.474 33.202,248.348 33.345,254.668 39.429 C 255.439 40.170,260.321 41.579,264.800 42.352 C 269.285 43.125,270.682 43.682,272.626 45.471 C 273.901 46.644,274.958 47.136,279.000 48.435 C 280.320 48.860,282.557 49.581,283.970 50.037 C 285.384 50.493,287.111 51.302,287.808 51.833 C 288.505 52.365,289.271 52.800,289.509 52.800 C 289.748 52.800,290.181 53.034,290.471 53.321 C 293.051 55.864,314.000 56.127,314.000 53.616 C 314.000 53.435,314.405 53.180,314.900 53.049 C 316.428 52.647,320.194 49.529,322.451 46.800 C 323.633 45.370,324.740 44.138,324.911 44.063 C 325.421 43.838,326.655 41.153,327.336 38.784 C 328.021 36.402,328.380 35.945,331.300 33.733 C 332.345 32.941,333.200 32.061,333.200 31.777 C 333.200 30.640,335.270 28.842,337.312 28.206 C 340.321 27.269,344.010 25.535,345.077 24.555 C 346.124 23.594,349.381 22.842,353.200 22.678 C 356.157 22.551,356.216 22.556,359.200 23.219 " stroke="none" fill="#fccb98" fill-rule="evenodd"></path><path id="path2" d="M0.000 264.400 L 0.000 528.800 200.000 528.800 L 400.000 528.800 400.000 264.400 L 400.000 0.000 200.000 0.000 L 0.000 0.000 0.000 264.400 M366.364 17.942 C 366.524 18.200,367.722 18.612,369.027 18.856 C 374.617 19.903,376.800 20.983,376.800 22.701 C 376.800 22.988,377.503 24.113,378.363 25.200 C 379.222 26.287,380.241 28.037,380.627 29.089 C 381.012 30.140,381.530 31.180,381.777 31.400 C 382.024 31.620,382.483 32.610,382.796 33.600 C 383.109 34.590,383.684 35.850,384.074 36.400 C 388.799 43.067,388.615 61.499,383.748 69.014 C 383.458 69.462,383.014 71.217,382.762 72.914 C 382.509 74.611,382.145 76.000,381.951 76.000 C 381.758 76.000,381.601 76.225,381.601 76.500 C 381.606 78.429,379.776 82.812,378.253 84.518 C 377.330 85.552,376.339 87.197,376.051 88.173 C 375.693 89.388,375.115 90.229,374.219 90.843 C 372.302 92.157,369.996 96.116,369.131 99.578 C 368.720 101.219,368.253 102.661,368.092 102.781 C 367.932 102.901,367.129 104.350,366.308 106.000 C 365.488 107.650,364.401 109.720,363.893 110.600 C 363.386 111.480,362.654 113.230,362.268 114.490 C 361.882 115.749,361.348 116.919,361.082 117.090 C 360.816 117.260,360.329 117.924,359.999 118.565 C 359.670 119.207,358.657 120.559,357.748 121.571 C 356.454 123.012,355.993 123.929,355.622 125.805 C 354.969 129.104,354.009 132.000,353.568 132.000 C 353.366 132.000,353.198 132.315,353.196 132.700 C 353.191 133.613,351.131 137.186,350.046 138.162 C 349.556 138.604,349.200 139.410,349.200 140.079 C 349.200 142.854,347.121 150.800,346.395 150.800 C 346.232 150.800,345.698 151.745,345.208 152.900 C 344.718 154.055,343.872 155.474,343.328 156.053 C 342.428 157.013,342.272 157.748,341.576 164.322 C 341.156 168.290,340.529 172.371,340.182 173.391 C 339.551 175.251,339.263 175.694,336.959 178.363 C 335.917 179.569,335.675 180.250,335.455 182.600 C 334.480 193.008,333.709 196.494,332.038 198.051 C 329.628 200.295,329.096 201.518,328.353 206.517 C 327.233 214.045,326.589 215.830,324.113 218.267 C 322.648 219.710,321.749 221.040,321.141 222.667 C 320.558 224.223,319.613 225.657,318.298 226.979 C 317.214 228.068,315.498 230.015,314.484 231.306 C 313.254 232.871,312.269 233.726,311.521 233.876 C 310.904 233.999,310.400 234.252,310.400 234.438 C 310.400 235.116,307.831 238.400,307.125 238.624 C 306.726 238.750,306.400 239.014,306.400 239.209 C 306.400 239.404,305.815 239.655,305.100 239.768 C 298.954 240.731,297.725 240.982,297.200 241.380 C 294.822 243.182,288.534 243.343,285.225 241.688 C 284.249 241.200,282.846 240.800,282.108 240.800 C 280.481 240.800,274.682 239.635,274.401 239.252 C 274.290 239.101,273.429 238.638,272.486 238.222 C 271.543 237.806,270.157 236.785,269.405 235.953 C 268.654 235.121,267.535 234.178,266.919 233.856 C 265.413 233.069,263.060 229.890,262.008 227.220 C 261.535 226.020,260.803 224.797,260.380 224.501 C 253.093 219.397,253.034 184.646,260.300 177.335 C 261.015 176.615,261.600 175.758,261.600 175.431 C 261.600 171.976,266.416 158.579,268.013 157.592 C 269.522 156.659,269.502 124.256,267.991 123.200 C 267.834 123.090,267.228 122.055,266.646 120.900 C 266.063 119.745,265.419 118.800,265.215 118.800 C 265.011 118.800,264.085 117.990,263.157 117.000 C 262.229 116.010,261.274 115.195,261.035 115.189 C 260.389 115.173,258.327 113.261,256.561 111.038 C 255.704 109.959,254.413 108.830,253.692 108.529 C 252.972 108.228,251.701 107.367,250.869 106.615 C 249.803 105.652,248.565 105.050,246.678 104.575 C 245.205 104.205,244.000 103.779,244.000 103.628 C 244.000 103.139,240.914 101.977,238.623 101.604 C 237.394 101.404,236.187 101.115,235.940 100.963 C 234.279 99.937,214.869 100.932,212.450 102.168 C 211.872 102.462,210.770 102.838,210.000 103.002 C 209.230 103.166,208.510 103.441,208.399 103.614 C 208.179 103.957,202.537 105.200,201.200 105.200 C 200.157 105.200,195.467 107.707,193.600 109.262 C 192.830 109.903,191.965 110.618,191.678 110.850 C 191.392 111.082,189.952 111.457,188.478 111.683 C 185.824 112.091,185.784 112.116,184.069 114.448 C 183.117 115.741,182.092 116.800,181.792 116.800 C 181.491 116.800,181.010 117.119,180.723 117.510 C 180.435 117.900,178.895 119.001,177.300 119.956 C 175.705 120.911,174.400 121.850,174.400 122.044 C 174.400 123.257,170.847 125.918,168.862 126.191 C 167.226 126.416,166.459 126.791,165.250 127.952 C 164.406 128.763,162.924 129.754,161.958 130.154 C 160.991 130.554,159.942 131.010,159.627 131.167 C 159.313 131.324,158.492 132.520,157.803 133.824 C 156.741 135.837,156.225 136.359,154.386 137.278 C 152.240 138.350,152.213 138.386,151.548 141.080 C 150.487 145.380,148.292 149.828,146.869 150.564 C 146.057 150.984,145.521 151.675,145.217 152.693 C 144.969 153.522,144.565 154.877,144.318 155.705 C 144.071 156.532,143.268 157.911,142.534 158.768 C 141.801 159.626,141.200 160.495,141.200 160.699 C 141.200 160.904,140.610 161.608,139.889 162.264 C 139.025 163.051,138.326 164.264,137.836 165.828 C 136.504 170.083,135.871 171.252,134.123 172.685 C 132.818 173.754,132.400 174.376,132.400 175.248 C 132.400 175.882,132.248 176.400,132.062 176.400 C 131.876 176.400,131.244 177.998,130.658 179.951 C 129.474 183.896,128.613 185.249,126.814 185.994 C 125.657 186.474,125.600 186.607,125.600 188.849 C 125.600 190.142,125.443 191.200,125.252 191.200 C 125.060 191.200,124.782 192.235,124.634 193.500 C 124.486 194.765,124.002 196.790,123.560 198.000 C 123.117 199.210,122.495 201.370,122.177 202.800 C 121.859 204.230,120.982 206.660,120.227 208.200 C 119.471 209.740,118.736 211.765,118.592 212.700 C 118.448 213.635,118.166 214.400,117.965 214.400 C 117.764 214.400,117.598 214.715,117.595 215.100 C 117.586 216.537,114.866 224.730,112.915 229.200 C 112.444 230.277,111.918 232.967,111.605 235.900 C 111.316 238.595,110.962 240.800,110.817 240.800 C 110.672 240.800,110.324 242.465,110.044 244.500 C 109.764 246.535,109.024 249.730,108.399 251.600 C 105.621 259.915,104.000 272.490,104.000 285.726 C 104.000 287.197,103.850 288.400,103.666 288.400 C 103.083 288.400,102.261 305.450,102.536 311.821 C 102.990 322.323,103.306 326.800,103.594 326.800 C 103.749 326.800,103.985 329.455,104.119 332.700 C 104.623 344.901,105.448 350.525,107.649 356.746 C 108.653 359.584,110.400 367.221,110.400 368.771 C 110.400 369.447,110.555 370.000,110.745 370.000 C 111.103 370.000,112.000 373.871,112.000 375.416 C 112.000 375.902,112.605 376.960,113.345 377.767 C 114.084 378.575,115.383 380.802,116.232 382.718 C 117.080 384.633,118.005 386.438,118.287 386.729 C 118.569 387.019,118.800 387.513,118.800 387.826 C 118.800 388.139,119.853 389.432,121.140 390.698 C 122.707 392.239,123.726 393.661,124.224 395.000 C 124.633 396.100,125.568 397.630,126.302 398.400 C 127.592 399.754,130.895 406.046,131.426 408.163 C 131.570 408.733,131.847 409.200,132.043 409.200 C 132.240 409.200,132.400 409.470,132.400 409.800 C 132.400 410.130,132.670 410.400,133.000 410.400 C 133.330 410.400,133.600 410.580,133.600 410.800 C 133.600 411.020,133.828 411.200,134.107 411.200 C 135.125 411.200,137.446 413.150,138.213 414.649 C 139.213 416.604,139.608 417.022,140.819 417.404 C 141.358 417.575,142.820 418.745,144.067 420.006 C 146.657 422.625,148.012 423.631,150.000 424.407 C 150.770 424.708,151.499 425.098,151.621 425.273 C 151.742 425.448,152.774 425.767,153.914 425.984 C 156.191 426.415,158.762 427.590,159.576 428.571 C 159.863 428.917,160.318 429.200,160.587 429.200 C 160.856 429.200,161.377 429.532,161.744 429.939 C 162.112 430.345,163.490 431.003,164.806 431.402 C 166.123 431.801,167.200 432.278,167.200 432.463 C 167.200 432.648,167.574 432.800,168.031 432.800 C 169.202 432.800,175.531 435.550,177.154 436.764 C 179.298 438.369,201.835 438.848,223.224 437.745 L 228.248 437.486 229.105 435.997 C 229.766 434.848,230.491 434.296,232.281 433.579 C 233.556 433.068,234.701 432.503,234.824 432.325 C 234.947 432.146,236.472 431.819,238.214 431.598 C 242.345 431.074,242.407 431.050,244.362 429.191 C 245.281 428.316,246.303 427.600,246.633 427.600 C 246.962 427.600,247.928 427.245,248.779 426.811 C 249.630 426.376,251.108 425.899,252.063 425.750 C 253.018 425.601,253.890 425.362,254.000 425.220 C 254.110 425.077,254.975 424.735,255.921 424.458 C 257.016 424.138,258.162 423.381,259.068 422.378 C 259.852 421.510,260.669 420.800,260.885 420.800 C 261.100 420.800,261.773 420.446,262.380 420.014 C 262.988 419.582,264.320 419.004,265.342 418.731 C 266.364 418.458,267.200 418.114,267.200 417.967 C 267.200 417.820,267.742 417.592,268.404 417.459 C 269.066 417.327,270.140 416.613,270.789 415.874 C 271.438 415.135,272.921 414.026,274.085 413.411 C 275.248 412.795,276.650 412.047,277.200 411.748 C 277.750 411.449,278.425 411.204,278.700 411.202 C 278.975 411.201,279.200 411.020,279.200 410.800 C 279.200 410.580,279.629 410.400,280.153 410.400 C 281.144 410.400,281.584 409.559,281.595 407.643 C 281.604 406.032,283.568 404.546,286.109 404.229 C 288.329 403.951,288.339 403.944,288.604 402.375 C 288.751 401.509,289.034 400.800,289.235 400.800 C 289.436 400.800,289.600 400.522,289.600 400.182 C 289.600 399.037,291.427 397.675,293.350 397.387 C 294.823 397.166,295.200 396.950,295.200 396.328 C 295.200 394.408,297.703 391.873,300.400 391.062 C 301.811 390.637,302.226 390.313,302.322 389.560 C 302.703 386.568,305.079 384.000,307.466 384.000 C 308.476 384.000,309.200 382.950,309.200 381.486 C 309.200 379.304,310.023 378.008,311.942 377.169 C 314.836 375.903,315.600 375.488,315.600 375.179 C 315.600 375.022,317.125 373.785,318.989 372.431 C 321.850 370.352,322.443 369.725,322.800 368.400 C 323.085 367.343,324.035 366.004,325.711 364.298 C 327.201 362.783,328.414 361.130,328.733 360.183 C 331.071 353.236,331.992 351.646,334.635 349.990 C 335.609 349.379,335.970 348.766,336.346 347.083 C 337.054 343.922,340.869 339.329,348.008 333.042 C 351.594 329.885,366.321 329.449,368.402 332.439 C 368.643 332.786,371.681 334.967,375.000 337.178 C 378.752 339.677,380.811 342.799,381.412 346.900 C 381.566 347.945,381.850 348.800,382.045 348.800 C 382.242 348.800,382.400 353.421,382.400 359.200 C 382.400 367.250,382.287 369.601,381.900 369.606 C 381.543 369.610,381.530 369.697,381.852 369.906 C 382.100 370.068,382.534 371.235,382.815 372.500 C 383.127 373.902,383.537 374.800,383.864 374.800 C 384.159 374.800,384.400 374.954,384.400 375.142 C 384.400 375.331,385.705 375.586,387.300 375.710 C 393.302 376.176,392.905 378.000,386.801 378.000 L 383.327 378.000 382.847 379.600 C 382.584 380.480,382.209 381.200,382.015 381.200 C 381.821 381.200,381.448 381.875,381.187 382.700 C 380.630 384.457,379.102 387.222,377.595 389.200 C 376.627 390.471,375.181 395.351,375.195 397.300 C 375.198 397.685,375.043 398.000,374.851 398.000 C 374.659 398.000,374.387 398.718,374.247 399.596 C 373.811 402.325,372.472 405.349,371.055 406.808 C 370.081 407.811,369.507 408.945,369.032 410.804 C 368.667 412.232,368.220 413.452,368.038 413.515 C 367.857 413.579,367.279 414.727,366.754 416.068 C 365.934 418.162,365.337 418.901,362.506 421.318 C 360.695 422.865,359.112 424.447,358.989 424.834 C 358.867 425.220,357.340 426.759,355.596 428.253 C 353.498 430.050,352.343 431.347,352.181 432.088 C 352.046 432.703,351.061 434.163,349.993 435.331 C 348.925 436.500,347.930 437.983,347.781 438.628 C 347.454 440.043,345.614 441.798,343.754 442.471 C 342.725 442.843,342.193 443.407,341.575 444.782 C 339.976 448.340,339.767 448.595,337.535 449.699 C 335.627 450.644,335.173 451.091,334.473 452.719 C 333.516 454.944,332.891 455.550,330.285 456.781 C 328.793 457.486,328.162 458.096,327.428 459.543 C 326.333 461.703,325.625 462.393,323.308 463.557 C 322.378 464.025,321.355 464.901,321.034 465.504 C 320.084 467.293,318.536 468.693,316.918 469.226 C 314.887 469.895,312.856 471.239,312.575 472.100 C 312.449 472.485,311.683 473.295,310.873 473.900 C 310.063 474.505,308.950 475.417,308.400 475.926 C 307.850 476.436,306.860 477.133,306.200 477.477 C 304.988 478.108,304.433 478.564,301.238 481.550 C 299.529 483.147,297.599 483.993,295.655 483.998 C 295.024 483.999,294.048 484.724,292.710 486.184 C 291.504 487.501,290.133 488.555,289.255 488.840 C 288.455 489.100,287.666 489.539,287.503 489.815 C 287.340 490.091,286.320 490.636,285.236 491.026 C 284.152 491.416,282.253 492.598,281.017 493.653 C 278.947 495.419,276.850 496.392,275.100 496.398 C 274.715 496.399,274.400 496.556,274.400 496.747 C 274.400 497.170,270.157 498.400,268.701 498.400 C 267.962 498.400,267.574 498.665,267.382 499.300 C 267.009 500.534,265.344 502.243,263.953 502.819 C 263.319 503.082,262.800 503.426,262.800 503.583 C 262.800 503.740,261.315 504.194,259.500 504.590 C 257.447 505.039,255.217 505.874,253.600 506.801 C 250.723 508.449,248.307 509.307,244.400 510.067 C 242.970 510.346,241.710 510.688,241.600 510.828 C 241.490 510.968,239.600 511.312,237.400 511.593 C 235.200 511.874,233.130 512.319,232.800 512.583 C 229.816 514.965,218.009 517.575,210.133 517.593 C 208.337 517.597,206.807 517.759,206.733 517.953 C 206.275 519.168,162.876 519.227,162.471 518.014 C 162.395 517.786,161.717 517.600,160.964 517.600 C 158.532 517.600,151.862 516.450,149.600 515.640 C 148.390 515.208,145.960 514.281,144.200 513.582 C 141.745 512.606,139.742 512.169,135.600 511.706 C 132.630 511.373,130.140 510.944,130.067 510.751 C 129.993 510.558,129.625 510.400,129.247 510.400 C 127.893 510.400,122.106 508.128,120.223 506.857 C 119.166 506.144,117.379 505.387,116.251 505.175 C 113.442 504.647,111.600 504.011,111.600 503.569 C 111.600 503.366,111.367 503.200,111.082 503.200 C 110.796 503.200,109.311 502.433,107.782 501.495 C 106.252 500.556,103.681 499.275,102.069 498.647 C 100.457 498.019,99.030 497.212,98.898 496.853 C 98.766 496.494,98.513 496.101,98.336 495.981 C 95.798 494.253,88.236 487.089,85.800 484.104 C 84.920 483.025,83.629 481.706,82.932 481.171 C 82.234 480.637,81.391 479.742,81.058 479.182 C 80.724 478.622,78.724 476.372,76.612 474.182 C 74.500 471.992,72.487 469.660,72.138 469.000 C 71.790 468.340,70.196 466.540,68.596 465.000 C 65.784 462.294,64.809 460.573,64.802 458.300 C 64.801 457.915,64.561 457.600,64.269 457.600 C 62.517 457.600,60.044 455.135,59.175 452.524 C 58.692 451.075,57.721 449.239,57.015 448.445 C 56.309 447.650,55.309 446.235,54.792 445.300 C 54.275 444.365,53.697 443.600,53.506 443.600 C 53.013 443.600,52.040 441.118,51.579 438.688 C 51.300 437.218,50.797 436.212,49.839 435.210 C 49.097 434.434,48.120 432.945,47.668 431.900 C 47.215 430.855,46.668 430.000,46.451 430.000 C 45.963 430.000,44.400 425.910,44.400 424.634 C 44.400 424.119,44.147 423.488,43.837 423.231 C 43.528 422.974,42.782 421.557,42.179 420.082 C 41.576 418.607,40.749 416.668,40.341 415.774 C 39.934 414.879,39.600 413.949,39.600 413.707 C 39.600 413.465,39.410 413.203,39.178 413.126 C 38.946 413.049,38.473 410.559,38.128 407.593 C 37.568 402.785,37.286 401.688,35.527 397.482 C 33.671 393.041,32.400 388.199,32.400 385.565 C 32.400 384.924,32.255 384.400,32.079 384.400 C 31.902 384.400,31.531 381.873,31.255 378.785 C 30.805 373.754,30.636 372.994,29.633 371.485 C 27.380 368.094,26.768 365.330,26.215 356.056 C 25.832 349.651,25.566 347.426,25.152 347.171 C 24.084 346.511,24.039 261.938,25.106 261.246 C 25.315 261.111,25.615 258.587,25.773 255.638 C 26.242 246.852,27.647 240.736,29.882 237.751 C 30.635 236.745,30.909 235.632,31.283 232.051 C 31.539 229.603,31.895 227.600,32.074 227.600 C 32.253 227.600,32.400 226.886,32.400 226.014 C 32.400 222.304,35.347 210.971,37.031 208.200 C 37.299 207.760,37.633 205.960,37.775 204.200 C 38.147 199.562,38.834 195.031,39.200 194.800 C 39.374 194.690,40.078 192.800,40.763 190.600 C 41.449 188.400,42.474 185.790,43.041 184.800 C 43.608 183.810,44.514 181.605,45.053 179.900 C 45.593 178.195,46.195 176.800,46.390 176.800 C 46.586 176.800,46.870 176.409,47.022 175.932 C 47.341 174.924,49.702 171.155,50.535 170.323 C 50.847 170.010,51.230 169.135,51.385 168.377 C 51.889 165.918,53.208 161.665,53.508 161.531 C 53.669 161.459,54.314 160.371,54.942 159.113 C 55.571 157.855,56.524 156.351,57.061 155.772 C 57.598 155.192,58.319 153.612,58.664 152.259 C 59.575 148.684,60.579 147.031,63.659 144.031 C 64.658 143.058,65.089 142.010,66.614 136.850 C 66.998 135.550,67.753 134.204,68.524 133.446 C 71.119 130.893,72.093 129.115,73.257 124.800 C 73.994 122.066,74.877 120.586,76.408 119.518 C 77.563 118.713,78.075 117.998,78.411 116.718 C 79.048 114.300,81.506 110.696,83.419 109.377 C 84.914 108.346,87.440 105.205,88.066 103.599 C 88.212 103.224,89.090 102.521,90.019 102.037 C 92.071 100.968,92.940 99.957,93.837 97.600 C 94.806 95.053,95.283 94.469,97.256 93.414 C 98.676 92.654,99.156 92.089,99.855 90.351 C 100.792 88.019,102.435 86.392,104.463 85.789 C 105.625 85.443,105.847 85.130,106.487 82.940 C 107.124 80.757,107.519 80.198,110.002 77.970 C 111.541 76.589,112.800 75.245,112.800 74.984 C 112.800 74.229,115.626 72.492,117.687 71.980 C 118.762 71.713,119.672 71.229,119.802 70.856 C 120.317 69.371,122.771 67.213,125.303 66.016 C 126.787 65.315,128.000 64.584,128.000 64.391 C 128.000 63.992,131.312 60.400,131.679 60.400 C 132.541 60.400,137.568 56.449,140.219 53.688 C 141.194 52.673,142.127 52.224,144.339 51.705 C 146.289 51.247,147.268 50.815,147.417 50.348 C 147.600 49.771,149.263 48.149,151.530 46.336 C 151.822 46.103,154.029 45.581,156.436 45.177 C 160.804 44.442,160.815 44.438,162.709 42.493 C 164.027 41.140,165.185 40.375,166.503 39.985 C 167.546 39.677,168.400 39.315,168.400 39.180 C 168.400 39.044,170.245 38.596,172.500 38.184 C 175.061 37.715,177.092 37.101,177.911 36.547 C 180.978 34.474,187.138 32.400,190.231 32.400 C 190.947 32.400,191.597 32.208,191.676 31.973 C 191.769 31.693,196.169 31.409,204.409 31.150 C 213.112 30.877,217.556 30.581,218.800 30.193 C 220.348 29.709,221.834 29.709,229.400 30.196 C 234.240 30.508,242.240 30.953,247.179 31.185 C 252.117 31.418,256.257 31.761,256.379 31.948 C 256.500 32.136,257.500 32.413,258.600 32.565 C 262.062 33.043,264.649 33.950,267.701 35.754 C 269.802 36.996,271.633 37.710,274.029 38.221 C 275.883 38.617,277.490 39.054,277.600 39.193 C 277.710 39.332,278.372 39.677,279.071 39.959 C 279.770 40.242,280.653 40.817,281.033 41.237 C 281.413 41.656,281.950 42.000,282.226 42.000 C 282.503 42.000,283.161 42.514,283.690 43.142 C 284.986 44.683,287.968 45.379,291.957 45.074 C 295.688 44.788,300.501 45.447,301.591 46.392 C 303.602 48.136,310.118 48.117,311.600 46.363 C 311.710 46.233,312.669 45.798,313.730 45.397 C 314.999 44.918,315.977 44.203,316.583 43.311 C 317.090 42.565,318.292 41.379,319.253 40.677 C 321.910 38.737,322.675 37.750,322.961 35.896 C 323.289 33.771,324.376 30.400,324.733 30.400 C 324.881 30.400,325.408 29.635,325.904 28.700 C 326.400 27.765,327.300 26.664,327.903 26.253 C 328.506 25.843,329.540 24.836,330.200 24.017 C 330.860 23.197,331.850 22.299,332.400 22.022 C 336.303 20.052,342.714 18.407,346.500 18.403 C 347.985 18.401,349.200 18.226,349.200 18.014 C 349.200 17.200,365.863 17.131,366.364 17.942 " stroke="none" fill="#fafbf9" fill-rule="evenodd"></path></g></svg>